<svg xmlns="http://www.w3.org/2000/svg" viewBox="0 0 1000 1000" width="1000" height="1000">
<path d="M 682 78 L 663 77 L 643 83 L 636 90 L 628 107 L 594 115 L 581 121 L 575 129 L 573 145 L 570 148 L 548 154 L 528 163 L 528 158 L 541 127 L 540 114 L 538 112 L 534 113 L 513 130 L 490 154 L 477 171 L 471 185 L 471 172 L 478 150 L 482 144 L 482 138 L 477 126 L 470 124 L 461 131 L 445 152 L 437 172 L 432 193 L 427 201 L 397 172 L 375 157 L 371 157 L 373 171 L 383 185 L 389 201 L 361 184 L 353 181 L 345 182 L 332 169 L 326 168 L 310 172 L 306 164 L 298 156 L 285 150 L 258 145 L 238 146 L 229 149 L 228 152 L 231 157 L 240 165 L 277 179 L 282 185 L 286 198 L 294 209 L 306 216 L 332 219 L 338 225 L 342 235 L 307 221 L 274 223 L 248 238 L 234 232 L 220 233 L 212 237 L 205 244 L 206 248 L 218 255 L 231 257 L 241 267 L 254 275 L 254 278 L 237 291 L 209 280 L 189 280 L 177 283 L 151 297 L 118 326 L 122 333 L 132 337 L 139 337 L 157 330 L 184 325 L 204 325 L 224 334 L 190 338 L 174 344 L 176 350 L 209 362 L 174 393 L 154 404 L 98 418 L 98 422 L 112 432 L 132 441 L 156 448 L 140 462 L 123 484 L 115 500 L 113 513 L 91 516 L 85 519 L 79 528 L 76 541 L 76 569 L 79 585 L 84 587 L 95 575 L 103 578 L 96 592 L 99 624 L 76 630 L 75 635 L 77 638 L 93 646 L 116 646 L 130 643 L 142 634 L 146 622 L 145 608 L 148 604 L 150 605 L 149 615 L 154 627 L 140 651 L 138 660 L 138 690 L 126 695 L 110 706 L 110 716 L 114 724 L 131 743 L 156 727 L 155 717 L 168 711 L 177 704 L 200 711 L 183 733 L 175 758 L 176 770 L 180 778 L 176 795 L 176 807 L 183 819 L 191 818 L 206 808 L 211 787 L 219 772 L 225 768 L 222 780 L 224 789 L 229 794 L 242 798 L 239 813 L 240 821 L 243 828 L 254 838 L 272 844 L 283 831 L 283 826 L 276 809 L 277 802 L 288 824 L 309 844 L 320 851 L 324 850 L 327 843 L 332 839 L 334 828 L 338 830 L 358 830 L 374 837 L 386 836 L 407 828 L 413 847 L 422 865 L 446 897 L 459 907 L 477 916 L 493 921 L 511 922 L 535 912 L 568 888 L 596 857 L 619 816 L 630 819 L 650 819 L 666 815 L 678 807 L 707 809 L 720 804 L 728 791 L 756 810 L 767 813 L 772 789 L 773 747 L 782 749 L 786 753 L 785 767 L 791 779 L 799 784 L 816 781 L 824 796 L 828 796 L 831 793 L 837 774 L 832 764 L 819 754 L 827 739 L 828 727 L 823 713 L 811 697 L 814 686 L 812 673 L 822 675 L 829 680 L 830 694 L 838 704 L 849 709 L 859 708 L 862 713 L 863 722 L 875 725 L 885 710 L 885 702 L 869 686 L 871 680 L 869 660 L 856 645 L 839 634 L 837 630 L 849 620 L 871 631 L 881 633 L 894 632 L 911 621 L 915 615 L 915 609 L 907 608 L 905 605 L 891 611 L 887 609 L 887 569 L 877 540 L 865 526 L 838 502 L 820 480 L 834 473 L 839 486 L 846 493 L 861 492 L 868 488 L 887 510 L 893 512 L 898 508 L 898 483 L 894 468 L 886 460 L 870 459 L 868 457 L 864 432 L 857 421 L 849 420 L 830 426 L 822 431 L 810 407 L 800 395 L 819 387 L 859 406 L 869 407 L 879 404 L 881 401 L 881 379 L 905 386 L 911 386 L 914 383 L 923 385 L 924 381 L 918 371 L 904 357 L 884 346 L 872 344 L 863 347 L 856 353 L 842 345 L 814 334 L 804 332 L 783 334 L 782 332 L 799 309 L 799 305 L 796 303 L 787 303 L 764 311 L 754 311 L 747 308 L 754 304 L 754 297 L 740 296 L 730 299 L 723 297 L 758 291 L 769 287 L 770 282 L 755 273 L 733 265 L 698 258 L 696 256 L 704 251 L 715 237 L 731 238 L 742 232 L 751 222 L 762 201 L 766 201 L 791 226 L 799 228 L 802 224 L 804 207 L 798 189 L 787 169 L 775 158 L 767 158 L 757 163 L 731 193 L 727 193 L 703 180 L 693 179 L 679 185 L 661 204 L 638 206 L 665 176 L 670 167 L 670 161 L 661 161 L 609 179 L 607 178 L 615 166 L 619 151 L 623 147 L 638 143 L 648 136 L 658 110 L 682 90 L 684 85 Z" fill="#000"/>
<path d="M 631 492 L 632 548 L 630 598 L 621 652 L 616 663 L 604 678 L 556 723 L 536 736 L 512 746 L 497 749 L 468 749 L 421 737 L 389 724 L 365 709 L 350 694 L 344 683 L 330 641 L 314 581 L 315 577 L 333 589 L 360 596 L 380 595 L 404 586 L 426 567 L 434 555 L 443 529 L 443 500 L 455 493 L 468 493 L 474 496 L 478 511 L 488 529 L 510 549 L 535 559 L 566 559 L 587 551 L 607 536 L 619 520 L 626 505 L 629 492 Z" fill="#000"/>
<path d="M 586 723 L 587 757 L 592 784 L 601 805 L 609 814 L 600 835 L 579 864 L 551 891 L 530 905 L 513 913 L 503 914 L 488 911 L 459 896 L 436 872 L 417 835 L 416 823 L 421 804 L 421 777 L 417 762 L 444 776 L 473 786 L 485 788 L 509 786 L 523 781 L 541 769 L 575 737 Z" fill="#000"/>
<path d="M 492 324 L 499 332 L 501 355 L 507 366 L 513 370 L 536 371 L 540 376 L 539 388 L 543 395 L 524 400 L 510 407 L 495 419 L 479 443 L 471 474 L 453 472 L 437 480 L 428 465 L 418 454 L 404 444 L 383 436 L 389 419 L 380 404 L 394 396 L 400 390 L 404 381 L 404 373 L 398 356 L 399 349 L 406 341 L 411 339 L 432 339 L 445 331 L 459 335 L 469 335 Z" fill="#000"/>
<path d="M 386 321 L 388 323 L 379 333 L 374 345 L 375 376 L 357 389 L 349 400 L 351 410 L 366 421 L 363 434 L 340 440 L 328 446 L 327 444 L 334 427 L 334 402 L 339 393 L 348 384 L 368 370 L 367 351 L 371 338 L 375 331 Z" fill="#000"/>
<path d="M 727 431 L 734 430 L 747 434 L 762 447 L 772 464 L 775 474 L 775 507 L 778 520 L 781 522 L 793 521 L 797 523 L 808 535 L 821 540 L 825 544 L 832 557 L 833 571 L 831 574 L 827 559 L 818 546 L 802 539 L 793 529 L 778 528 L 771 521 L 767 507 L 768 479 L 765 466 L 749 442 L 738 436 L 728 434 Z" fill="#000"/>
<path d="M 534 303 L 537 305 L 541 317 L 540 337 L 555 338 L 566 347 L 572 360 L 575 378 L 605 404 L 610 416 L 609 419 L 592 405 L 567 395 L 563 386 L 563 380 L 567 372 L 565 355 L 555 347 L 539 345 L 534 342 L 533 336 L 536 324 Z" fill="#000"/>
<path d="M 696 475 L 715 478 L 727 489 L 730 497 L 730 506 L 721 527 L 721 542 L 725 547 L 743 546 L 750 548 L 754 554 L 751 581 L 756 586 L 765 586 L 771 581 L 772 583 L 768 589 L 754 592 L 748 588 L 744 579 L 746 555 L 744 553 L 725 555 L 716 548 L 713 541 L 713 529 L 722 507 L 721 492 L 714 484 L 698 478 Z" fill="#000"/>
<path d="M 338 324 L 337 326 L 325 321 L 314 321 L 306 324 L 299 331 L 293 352 L 288 357 L 262 357 L 250 365 L 244 372 L 240 382 L 238 382 L 238 373 L 241 367 L 254 354 L 268 348 L 285 351 L 288 347 L 291 330 L 302 318 L 318 313 L 333 319 Z" fill="#000"/>
<path d="M 696 683 L 703 700 L 712 708 L 725 715 L 731 722 L 731 729 L 723 738 L 706 745 L 707 752 L 715 760 L 723 763 L 723 765 L 716 765 L 710 762 L 699 751 L 698 747 L 701 740 L 720 731 L 723 728 L 723 724 L 708 714 L 695 700 L 692 688 Z" fill="#000"/>
<path d="M 643 580 L 646 583 L 649 596 L 657 609 L 680 623 L 680 628 L 669 645 L 663 661 L 664 671 L 669 682 L 661 676 L 658 670 L 657 657 L 664 640 L 673 626 L 658 619 L 647 606 L 641 589 Z" fill="#000"/>
<path d="M 644 671 L 643 694 L 646 702 L 655 713 L 656 720 L 654 721 L 648 713 L 640 727 L 640 734 L 645 742 L 666 761 L 669 770 L 667 781 L 665 780 L 664 769 L 659 760 L 641 746 L 634 734 L 635 722 L 643 709 L 638 698 L 637 688 Z" fill="#000"/>
<path d="M 282 680 L 284 681 L 284 694 L 290 699 L 305 704 L 311 712 L 311 719 L 299 741 L 316 757 L 317 772 L 314 779 L 310 759 L 293 744 L 294 735 L 303 721 L 304 711 L 301 708 L 286 703 L 280 697 L 278 689 Z" fill="#000"/>
<path d="M 281 538 L 284 541 L 278 547 L 274 557 L 274 566 L 279 584 L 278 599 L 270 614 L 254 633 L 249 647 L 248 639 L 251 630 L 266 610 L 272 596 L 272 586 L 267 566 L 268 553 L 274 542 Z" fill="#000"/>
<path d="M 725 572 L 735 580 L 741 593 L 741 606 L 733 630 L 734 641 L 743 651 L 756 653 L 759 650 L 759 654 L 754 657 L 738 655 L 727 643 L 726 627 L 734 603 L 734 592 L 729 579 L 724 574 Z" fill="#000"/>
<path d="M 556 288 L 556 284 L 562 276 L 580 268 L 595 273 L 609 292 L 623 278 L 632 273 L 641 271 L 649 274 L 630 281 L 611 299 L 605 299 L 595 281 L 586 274 L 573 275 Z" fill="#000"/>
<path d="M 264 439 L 241 465 L 233 478 L 229 493 L 229 506 L 234 525 L 226 517 L 222 507 L 221 494 L 225 479 L 235 462 L 254 444 Z" fill="#000"/>
<path d="M 532 223 L 540 238 L 541 251 L 538 250 L 528 228 L 524 225 L 516 225 L 508 229 L 499 239 L 493 264 L 489 249 L 491 240 L 497 230 L 505 222 L 518 217 L 525 218 Z" fill="#000"/>
<path d="M 206 545 L 209 548 L 191 562 L 187 571 L 188 584 L 193 599 L 192 609 L 186 616 L 176 618 L 173 616 L 182 612 L 187 605 L 180 578 L 181 567 L 192 552 Z" fill="#000"/>
<path d="M 352 289 L 360 272 L 366 266 L 378 260 L 393 263 L 401 271 L 407 287 L 406 289 L 393 270 L 387 267 L 378 267 L 370 271 L 354 291 Z" fill="#000"/>
<path d="M 292 382 L 292 385 L 278 390 L 264 401 L 257 412 L 253 426 L 251 423 L 251 413 L 260 397 L 272 388 Z" fill="#000"/>
<path d="M 239 656 L 239 674 L 228 695 L 227 705 L 224 710 L 221 705 L 222 696 L 233 675 L 237 657 Z" fill="#000"/>
<path d="M 355 766 L 363 769 L 369 775 L 374 786 L 374 803 L 370 812 L 367 784 Z" fill="#000"/>
<path d="M 353 734 L 355 741 L 353 756 L 339 779 L 337 774 L 348 752 Z" fill="#000"/>
<path d="M 132 555 L 125 563 L 108 571 L 112 559 L 117 552 Z" fill="#000"/>
<path d="M 639 477 L 670 502 L 667 504 L 653 498 L 643 488 Z" fill="#000"/>
<path d="M 660 533 L 665 550 L 678 569 L 672 567 L 662 556 L 658 545 L 658 535 Z" fill="#000"/>
<path d="M 630 496 L 626 509 L 613 531 L 596 547 L 571 559 L 562 561 L 538 561 L 523 557 L 509 550 L 488 531 L 477 512 L 473 497 L 465 494 L 457 494 L 444 500 L 445 525 L 442 539 L 435 556 L 424 571 L 403 588 L 381 596 L 356 597 L 334 591 L 315 578 L 335 653 L 344 679 L 353 696 L 367 709 L 390 723 L 429 738 L 463 747 L 493 748 L 514 744 L 537 734 L 558 720 L 599 682 L 615 662 L 621 647 L 629 594 L 631 543 Z" fill="#fff"/>
<path d="M 585 726 L 573 741 L 543 769 L 524 782 L 502 789 L 482 789 L 458 783 L 434 773 L 419 763 L 423 783 L 422 806 L 417 824 L 419 837 L 437 871 L 450 887 L 461 896 L 481 907 L 505 913 L 512 912 L 534 901 L 555 886 L 571 871 L 590 848 L 599 834 L 607 814 L 599 804 L 591 785 L 586 760 Z" fill="#fff"/>
<path d="M 491 325 L 476 334 L 467 337 L 457 336 L 445 332 L 440 337 L 433 340 L 412 340 L 403 345 L 400 351 L 400 359 L 405 372 L 404 386 L 396 396 L 381 404 L 386 409 L 390 418 L 390 424 L 385 436 L 399 440 L 415 450 L 427 462 L 437 478 L 448 472 L 456 470 L 471 473 L 476 447 L 489 424 L 509 406 L 523 399 L 541 394 L 538 389 L 537 373 L 533 371 L 512 371 L 504 364 L 499 352 L 500 345 L 498 333 Z" fill="#fff"/>
<path d="M 386 323 L 377 330 L 370 345 L 369 371 L 361 375 L 345 388 L 336 400 L 335 429 L 329 444 L 345 437 L 362 434 L 362 429 L 365 422 L 351 412 L 348 407 L 348 399 L 359 386 L 373 377 L 373 343 L 378 332 Z" fill="#fff"/>
<path d="M 535 305 L 537 310 L 535 341 L 540 344 L 556 346 L 566 354 L 569 367 L 564 385 L 568 394 L 591 403 L 608 416 L 606 408 L 602 402 L 574 379 L 572 375 L 570 358 L 563 345 L 556 340 L 541 339 L 539 337 L 540 321 L 539 313 Z" fill="#fff"/>
<path d="M 727 432 L 734 433 L 747 439 L 754 445 L 762 458 L 769 475 L 768 503 L 773 522 L 779 527 L 793 527 L 800 536 L 819 545 L 828 558 L 831 572 L 832 564 L 830 556 L 820 541 L 807 536 L 796 524 L 780 523 L 776 519 L 774 511 L 774 475 L 771 465 L 762 449 L 754 440 L 746 435 L 738 432 Z" fill="#fff"/>
<path d="M 697 476 L 713 482 L 719 487 L 723 494 L 723 508 L 714 530 L 714 539 L 717 547 L 724 553 L 745 552 L 748 556 L 745 572 L 748 586 L 756 591 L 767 588 L 770 583 L 764 588 L 758 588 L 753 586 L 750 582 L 749 574 L 752 563 L 752 553 L 749 549 L 726 549 L 720 543 L 719 529 L 727 511 L 729 502 L 728 494 L 725 488 L 714 479 L 704 476 Z" fill="#fff"/>
<path d="M 336 324 L 332 320 L 322 315 L 312 315 L 306 317 L 293 329 L 290 337 L 289 349 L 286 352 L 266 350 L 258 353 L 244 365 L 239 375 L 239 381 L 243 371 L 257 358 L 267 354 L 282 357 L 287 356 L 292 351 L 296 333 L 307 322 L 313 320 L 326 320 Z" fill="#fff"/>
<path d="M 696 684 L 694 687 L 694 694 L 697 701 L 704 709 L 725 724 L 725 727 L 721 732 L 701 742 L 700 750 L 703 755 L 711 761 L 722 764 L 713 760 L 706 753 L 704 746 L 707 743 L 724 736 L 730 728 L 730 723 L 727 718 L 711 709 L 701 699 L 697 692 Z" fill="#fff"/>
<path d="M 643 581 L 644 596 L 651 610 L 659 618 L 674 625 L 660 651 L 658 660 L 659 669 L 662 675 L 669 681 L 664 675 L 662 669 L 662 658 L 667 646 L 675 635 L 679 624 L 677 621 L 661 614 L 654 607 L 648 597 Z" fill="#fff"/>
<path d="M 644 673 L 639 684 L 639 697 L 645 708 L 637 721 L 635 732 L 642 745 L 662 762 L 666 771 L 667 779 L 667 767 L 665 762 L 641 739 L 639 735 L 639 726 L 645 715 L 649 712 L 654 720 L 655 719 L 653 712 L 646 704 L 642 695 L 642 678 Z" fill="#fff"/>
<path d="M 283 681 L 280 687 L 280 694 L 283 699 L 293 705 L 302 707 L 306 713 L 305 720 L 298 730 L 294 741 L 296 747 L 311 758 L 313 762 L 314 778 L 316 770 L 314 755 L 301 746 L 298 742 L 298 738 L 307 724 L 310 714 L 304 705 L 291 701 L 283 695 Z" fill="#fff"/>
<path d="M 280 539 L 272 547 L 268 559 L 270 575 L 274 588 L 273 598 L 268 609 L 253 629 L 249 640 L 249 645 L 253 632 L 270 612 L 277 597 L 278 587 L 273 568 L 273 555 L 276 548 L 282 542 Z" fill="#fff"/>
<path d="M 726 574 L 733 585 L 736 596 L 735 605 L 727 628 L 727 638 L 729 644 L 737 653 L 744 655 L 756 655 L 758 653 L 749 654 L 742 652 L 733 642 L 732 628 L 740 604 L 740 595 L 736 584 Z" fill="#fff"/>
<path d="M 262 441 L 253 446 L 238 460 L 226 480 L 223 491 L 223 506 L 228 518 L 233 523 L 228 508 L 228 492 L 232 477 L 241 463 Z" fill="#fff"/>
<path d="M 557 288 L 559 283 L 568 276 L 575 273 L 584 272 L 592 276 L 600 286 L 603 295 L 606 298 L 610 298 L 614 296 L 629 280 L 647 274 L 633 274 L 624 279 L 610 293 L 608 293 L 596 275 L 581 269 L 573 271 L 563 277 L 559 281 Z" fill="#fff"/>
<path d="M 529 222 L 523 219 L 515 219 L 506 223 L 496 233 L 491 244 L 491 255 L 494 262 L 494 248 L 497 240 L 507 228 L 515 224 L 524 224 L 531 230 L 540 250 L 537 233 Z" fill="#fff"/>
<path d="M 207 547 L 201 548 L 194 552 L 187 559 L 182 568 L 181 576 L 188 599 L 188 606 L 184 612 L 175 616 L 183 616 L 191 608 L 191 597 L 186 581 L 186 569 L 191 560 Z" fill="#fff"/>
<path d="M 354 290 L 361 278 L 369 270 L 381 265 L 388 266 L 396 271 L 405 286 L 400 272 L 392 264 L 387 262 L 376 262 L 368 266 L 360 274 L 354 285 Z" fill="#fff"/>
<path d="M 291 383 L 271 390 L 258 401 L 253 410 L 253 424 L 256 411 L 261 403 L 274 391 L 292 384 Z" fill="#fff"/>
<path d="M 130 556 L 118 553 L 115 556 L 109 570 L 124 562 Z" fill="#fff"/>
<path d="M 239 657 L 234 676 L 224 694 L 224 708 L 227 694 L 238 672 Z" fill="#fff"/>
<path d="M 356 768 L 360 771 L 368 783 L 370 789 L 370 810 L 373 799 L 372 784 L 366 773 Z" fill="#fff"/>
<path d="M 353 736 L 349 753 L 340 769 L 339 777 L 350 760 L 353 749 Z" fill="#fff"/>
<path d="M 640 478 L 643 486 L 654 497 L 661 501 L 668 502 L 665 498 L 657 495 Z" fill="#fff"/>
</svg>